<?xml version="1.0" encoding="UTF-8" standalone="no"?>
<svg
   xmlns:dc="http://purl.org/dc/elements/1.1/"
   xmlns:cc="http://creativecommons.org/ns#"
   xmlns:rdf="http://www.w3.org/1999/02/22-rdf-syntax-ns#"
   xmlns:svg="http://www.w3.org/2000/svg"
   xmlns="http://www.w3.org/2000/svg"
   xmlns:sodipodi="http://sodipodi.sourceforge.net/DTD/sodipodi-0.dtd"
   xmlns:inkscape="http://www.inkscape.org/namespaces/inkscape"
   viewBox="-178.3 -167.1 1000 700"
   version="1.1"
   id="svg14"
   sodipodi:docname="Awesome.svg"
   inkscape:version="0.92.2 (5c3e80d, 2017-08-06)">
  <metadata
     id="metadata20">
    <rdf:RDF>
      <cc:Work
         rdf:about="">
        <dc:format>image/svg+xml</dc:format>
        <dc:type
           rdf:resource="http://purl.org/dc/dcmitype/StillImage" />
      </cc:Work>
    </rdf:RDF>
  </metadata>
  <defs
     id="defs18" />
  <sodipodi:namedview
     pagecolor="#ffffff"
     bordercolor="#666666"
     borderopacity="1"
     objecttolerance="10"
     gridtolerance="10"
     guidetolerance="10"
     inkscape:pageopacity="0"
     inkscape:pageshadow="2"
     inkscape:window-width="2560"
     inkscape:window-height="1378"
     id="namedview16"
     showgrid="false"
     inkscape:zoom="0.86357143"
     inkscape:cx="401.37374"
     inkscape:cy="185.44017"
     inkscape:window-x="-8"
     inkscape:window-y="-8"
     inkscape:window-maximized="1"
     inkscape:current-layer="svg14" />
  <path
     d="m 76.426055,133.76997 c 4,0 7.3,1.4 10.1,4.2 2.8,2.8 4.2,6.2 4.2,10.1 v 49.6 h -50.7 c -4,0 -7.3,-1.4 -10.1,-4.2 -2.8,-2.8 -4.2,-6.2 -4.2,-10.1 v -23.6 h 53.1 v -11.7 c 0,-0.7 -0.2,-1.2 -0.7,-1.7 -0.5,-0.5 -1,-0.7 -1.7,-0.7 h -50.7 v -11.9 z m 2.4,52 v -14.1 h -41.2 v 11.7 c 0,0.7 0.2,1.2 0.7,1.7 0.5,0.5 1,0.7 1.7,0.7 z m 114.700005,-52 h 12.7 l -24,63.9 h -9.7 l -21.5,-47.5 -20.3,47.5 -0.2,-0.1 0.1,0.1 h -9.6 l -25.100005,-63.9 h 12.600005 l 17.3,42.4 18.4,-42.4 h 13.6 l 19.5,42.4 z m 67.2,0 c 4,0 7.3,1.4 10.1,4.2 2.8,2.8 4.2,6.2 4.2,10.1 v 23.6 h -53.1 v 11.7 c 0,0.7 0.2,1.2 0.7,1.7 0.5,0.5 1,0.7 1.7,0.7 h 50.7 v 11.9 h -50.7 c -4,0 -7.3,-1.4 -10.1,-4.2 -2.8,-2.8 -4.2,-6.2 -4.2,-10.1 v -35.3 c 0,-4 1.4,-7.3 4.2,-10.1 2.8,-2.8 6.2,-4.2 10.1,-4.2 z m -38.8,26 h 41.2 v -11.7 c 0,-0.7 -0.2,-1.2 -0.7,-1.7 -0.5,-0.5 -1,-0.7 -1.7,-0.7 h -36.4 c -0.7,0 -1.2,0.2 -1.7,0.7 -0.5,0.5 -0.7,1 -0.7,1.7 z m 129,-11.6 v 2.4 h -11.9 v -2.4 c 0,-0.7 -0.2,-1.2 -0.7,-1.7 -0.5,-0.5 -1,-0.7 -1.7,-0.7 h -36.4 c -0.7,0 -1.2,0.2 -1.7,0.7 -0.5,0.5 -0.7,1 -0.7,1.7 v 9.3 c 0,0.7 0.2,1.2 0.7,1.7 0.5,0.5 1,0.7 1.7,0.7 h 36.4 c 4,0 7.3,1.4 10.1,4.2 2.8,2.8 4.2,6.2 4.2,10.1 v 9.3 c 0,4 -1.4,7.3 -4.2,10.1 -2.8,2.8 -6.2,4.2 -10.1,4.2 h -36.4 c -4,0 -7.3,-1.4 -10.1,-4.2 -2.8,-2.8 -4.2,-6.2 -4.2,-10.1 v -2.4 h 11.9 v 2.4 c 0,0.7 0.2,1.2 0.7,1.7 0.5,0.5 1,0.7 1.7,0.7 h 36.4 c 0.7,0 1.2,-0.2 1.7,-0.7 0.5,-0.5 0.7,-1 0.7,-1.7 v -9.3 c 0,-0.7 -0.2,-1.2 -0.7,-1.7 -0.5,-0.5 -1,-0.7 -1.7,-0.7 h -36.4 c -4,0 -7.3,-1.4 -10.1,-4.2 -2.8,-2.8 -4.2,-6.2 -4.2,-10.1 v -9.3 c 0,-4 1.4,-7.3 4.2,-10.1 2.8,-2.8 6.2,-4.2 10.1,-4.2 h 36.4 c 4,0 7.3,1.4 10.1,4.2 2.8,2.7 4.2,6.1 4.2,10.1 z m 25.2,-14.4 h 36.4 c 4,0 7.3,1.4 10.1,4.2 2.8,2.8 4.2,6.2 4.2,10.1 v 35.3 c 0,4 -1.4,7.3 -4.2,10.1 -2.8,2.8 -6.2,4.2 -10.1,4.2 h -36.4 c -4,0 -7.3,-1.4 -10.1,-4.2 -2.8,-2.8 -4.2,-6.2 -4.2,-10.1 v -35.3 c 0,-4 1.4,-7.3 4.2,-10.1 2.8,-2.8 6.2,-4.2 10.1,-4.2 z m 36.4,11.9 h -36.4 c -0.7,0 -1.2,0.2 -1.7,0.7 -0.5,0.5 -0.7,1 -0.7,1.7 v 35.3 c 0,0.7 0.2,1.2 0.7,1.7 0.5,0.5 1,0.7 1.7,0.7 h 36.4 c 0.7,0 1.2,-0.2 1.7,-0.7 0.5,-0.5 0.7,-1 0.7,-1.7 v -35.3 c 0,-0.7 -0.2,-1.2 -0.7,-1.7 -0.5,-0.4 -1,-0.7 -1.7,-0.7 z m 107.5,-11.9 c 4,0 7.3,1.4 10.1,4.2 2.8,2.8 4.2,6.2 4.2,10.1 v 49.6 h -11.8 v -49.6 c 0,-0.7 -0.2,-1.2 -0.7,-1.7 -0.5,-0.5 -1.1,-0.7 -1.8,-0.7 h -25.2 c -0.7,0 -1.2,0.2 -1.7,0.7 -0.5,0.5 -0.7,1 -0.7,1.7 v 49.6 h -11.9 v -49.6 c 0,-0.7 -0.2,-1.2 -0.7,-1.7 -0.5,-0.5 -1,-0.7 -1.7,-0.7 h -25.3 c -0.7,0 -1.2,0.2 -1.7,0.7 -0.5,0.5 -0.7,1 -0.7,1.7 v 49.6 h -11.9 v -63.9 z m 76.5,0 c 4,0 7.3,1.4 10.1,4.2 2.8,2.8 4.2,6.2 4.2,10.1 v 23.6 h -53.1 v 11.7 c 0,0.7 0.2,1.2 0.7,1.7 0.5,0.5 1,0.7 1.7,0.7 h 50.7 v 11.9 h -50.7 c -4,0 -7.3,-1.4 -10.1,-4.2 -2.8,-2.8 -4.2,-6.2 -4.2,-10.1 v -35.3 c 0,-4 1.4,-7.3 4.2,-10.1 2.8,-2.8 6.2,-4.2 10.1,-4.2 z m -38.8,26 h 41.2 v -11.7 c 0,-0.7 -0.2,-1.2 -0.7,-1.7 -0.5,-0.5 -1,-0.7 -1.7,-0.7 h -36.4 c -0.7,0 -1.2,0.2 -1.7,0.7 -0.5,0.5 -0.7,1 -0.7,1.7 z"
     id="path10"
     inkscape:connector-curvature="0"
     style="fill:#494368" />
</svg>
